<svg width="98" height="97" viewBox="0 0 98 97" fill="none" xmlns="http://www.w3.org/2000/svg">
<g id="Group" filter="url(#filter0_d_0_7390)">
<path id="Vector" fill-rule="evenodd" clip-rule="evenodd" d="M62.8879 12.8024C64.4405 10.1529 67.8963 9.25226 70.5786 10.7944L71.5363 11.3453C74.2186 12.8874 75.1374 16.3078 73.5847 18.9573C73.0712 19.8342 75.2082 22.5171 76.5153 21.582C79.0263 19.791 82.5569 20.3586 84.3774 22.8436L85.025 23.7321C86.7625 26.1079 86.3271 29.3958 84.1002 31.2475C82.8156 32.3187 84.1205 35.2293 85.7862 35.0112C88.672 34.6339 91.4311 36.5284 92.0414 39.3943L92.2673 40.4645C92.9101 43.4676 90.956 46.4246 87.9252 47.0503C86.6359 47.3191 86.6315 50.6834 87.9196 50.9592C90.948 51.6097 92.8916 54.5825 92.2441 57.5801L92.0108 58.6477C91.3634 61.6453 88.3626 63.5607 85.3308 62.9099C84.0558 62.6388 82.6634 65.7132 83.7167 66.475C86.2247 68.2856 86.777 71.7835 84.9528 74.2567L84.3002 75.1387C82.476 77.6119 78.9407 78.1532 76.4363 76.3395C75.3704 75.5697 72.8378 77.8129 73.4965 78.9431C75.0443 81.606 74.1124 85.0174 71.424 86.5421L70.4668 87.0838C67.7784 88.6085 64.3273 87.6786 62.7825 85.0194C62.1297 83.8965 58.8864 84.927 59.0217 86.2113C59.3415 89.2631 57.0864 92.004 54.0055 92.3102L52.9021 92.4218C49.8209 92.7313 47.0446 90.4941 46.7247 87.4423C46.5936 86.1818 43.1933 85.8154 42.7966 87.019C41.8339 89.9326 38.6447 91.5269 35.7002 90.5681L34.6492 90.2242C31.701 89.2683 30.0815 86.1099 31.0443 83.1963C31.4501 81.9703 28.5008 80.2725 27.6237 81.2305C25.5478 83.4995 21.9778 83.6728 19.676 81.6104L18.8562 80.8771C16.5544 78.8147 16.3707 75.283 18.4503 73.0111C19.3351 72.0439 17.3381 69.3159 16.1327 69.8409C13.2994 71.0793 9.96396 69.7977 8.70521 66.9922L8.25552 65.9914C7.00011 63.1864 8.28458 59.8898 11.1212 58.6517C12.0537 58.2443 11.901 54.833 10.3037 54.8246C7.20285 54.8145 4.67901 52.3038 4.68511 49.237L4.6846 48.1443C4.69071 45.0776 7.22301 42.5871 10.3238 42.5971C11.6344 42.6014 12.3473 39.31 11.1478 38.7764C8.3199 37.5194 7.04404 34.2142 8.30852 31.4167L8.75729 30.4192C10.0251 27.6221 13.3635 26.3679 16.1948 27.6253C17.6522 28.2736 19.2068 25.23 18.5215 24.4712C16.4498 22.1862 16.6411 18.6549 18.9495 16.6115L19.7716 15.8814C22.0796 13.8413 25.6502 14.0389 27.7219 16.3238C28.6003 17.2973 31.548 15.6235 31.1444 14.3837C30.1919 11.4643 31.8183 8.31815 34.7676 7.38294L35.8207 7.04867C38.7699 6.11346 41.9544 7.72973 42.9069 10.6492C43.3109 11.8856 46.6995 11.5458 46.8383 10.2576C47.1669 7.20882 49.9501 4.99266 53.0297 5.32453L54.132 5.44332C57.215 5.77556 59.4588 8.53345 59.1302 11.5822C58.9601 13.1611 62.3751 13.6728 62.8879 12.8024Z" fill="#25BE84"/>
<path id="Vector_2" fill-rule="evenodd" clip-rule="evenodd" d="M56.8179 11.3329C57.0104 9.54593 55.6914 7.92688 53.8877 7.7325L52.7855 7.61372C50.9818 7.41934 49.3481 8.7202 49.1555 10.5072C48.7494 14.276 41.8732 14.9651 40.6946 11.353C40.1379 9.65233 38.2607 8.69821 36.5397 9.24118L35.4866 9.57545C33.7686 10.1221 32.8081 11.98 33.3615 13.6803C34.5431 17.2961 28.5543 20.6938 25.9908 17.8614C24.7829 16.5283 22.6738 16.4079 21.329 17.5996L20.5069 18.3296C19.1584 19.5242 19.0462 21.6005 20.2571 22.9373C21.4889 24.2996 21.0447 26.3201 20.1828 27.7342C19.161 29.4084 17.2275 30.6068 15.2474 29.7285C13.59 28.9919 11.6288 29.7261 10.888 31.3638L10.4359 32.3609C9.69516 33.9986 10.4455 35.9406 12.1029 36.6773C15.6047 38.2342 14.1583 44.9149 10.3211 44.9023C8.51419 44.8947 7.02111 46.3644 7.01773 48.1517L7.01454 49.2474C7.01115 51.0347 8.5039 52.5154 10.3108 52.523C14.4047 52.5365 15.3347 59.3329 12.0657 60.7583C10.4097 61.482 9.65328 63.4221 10.3889 65.0618L10.8352 66.0622C11.5705 67.7052 13.5337 68.4581 15.1896 67.7343C17.0229 66.9328 18.8921 68.0565 19.9644 69.5186C21.0394 70.9878 21.5297 73.0856 20.1813 74.5608C18.9636 75.8898 19.0713 77.9631 20.4178 79.1708L21.2372 79.9073C22.5874 81.112 24.6832 81.0104 25.9009 79.6815C28.467 76.8772 34.4486 80.3186 33.2601 83.9162C32.698 85.6199 33.6502 87.4767 35.3739 88.0367L36.4249 88.3806C38.1453 88.9402 40.0236 88.0032 40.5857 86.2995C41.7687 82.7213 48.6528 83.4632 49.043 87.2109C49.2292 88.9952 50.8647 90.3109 52.6649 90.1307L53.765 90.0186C55.5684 89.8388 56.8943 88.2274 56.7082 86.4431C56.3134 82.6748 62.8909 80.5869 64.804 83.8738C65.7073 85.4314 67.7366 85.9775 69.3091 85.0878L70.2667 84.5427C71.8395 83.6496 72.3865 81.6469 71.4799 80.089C70.4767 78.3603 71.4057 76.4188 72.7657 75.2121C74.1253 74.0087 76.1909 73.309 77.8114 74.4828C79.2751 75.5427 81.3536 75.2254 82.422 73.7767L83.0713 72.8944C84.1393 71.449 83.8136 69.3923 82.3498 68.3324C79.2556 66.0977 82.0769 59.8592 85.819 60.6601C87.5861 61.0377 89.36 59.909 89.7375 58.162L89.9678 57.0908C90.3486 55.3442 89.1996 53.5897 87.4326 53.2122C83.6775 52.4066 83.6876 45.5711 87.4441 44.7964C89.2204 44.4298 90.3672 42.6922 89.9924 40.9343L89.7631 39.8637C89.4113 38.2052 87.7966 37.0722 86.1002 37.2937C85.6787 37.3486 85.2513 37.3326 84.835 37.2443C81.5653 36.5444 79.9156 31.722 82.5997 29.4852C83.9135 28.3938 84.1491 26.4577 83.142 25.0795L82.4944 24.191C81.434 22.7435 79.3481 22.4085 77.8839 23.4536C74.5269 25.8518 69.7971 20.8279 71.5732 17.7981C72.4761 16.2548 71.9335 14.2349 70.3715 13.3348L69.4138 12.7838C67.8517 11.8837 65.8105 12.4189 64.9043 13.9619C63.1322 16.9854 56.3793 15.4023 56.8179 11.3329Z" fill="#1CA672"/>
<path id="Vector_3" fill-rule="evenodd" clip-rule="evenodd" d="M10.7512 35.573L82.9937 24.8801L83.1412 25.0798C84.1482 26.4581 83.9126 28.3941 82.5988 29.4855C79.9148 31.7224 81.5644 36.5447 84.8341 37.2446C85.2504 37.3329 85.6778 37.3489 86.0993 37.2941C87.7958 37.0726 89.4104 38.2056 89.7622 39.8641L89.9915 40.9346C90.3664 42.6925 89.2195 44.4301 87.4432 44.7967C83.6867 45.5714 83.6766 52.4069 87.4317 53.2125C89.1987 53.5901 90.3478 55.3445 89.9669 57.0911L89.7366 58.1623C89.535 59.0929 88.9367 59.8471 88.1586 60.2945L85.7554 60.647C85.0173 60.504 84.3138 60.6353 83.6846 60.9551L20.452 70.3167C20.3098 70.0374 20.1461 69.7692 19.9635 69.519C18.8912 68.0568 17.022 66.9331 15.1887 67.7347C13.5328 68.4584 11.5696 67.7055 10.8344 66.0625L10.388 65.0621C9.65239 63.4224 10.4089 61.4823 12.0648 60.7586C15.3338 59.3333 14.4038 52.5368 10.3099 52.5233C8.50301 52.5157 7.01026 51.035 7.01365 49.2477L7.01683 48.1521C7.02022 46.3648 8.5133 44.895 10.3202 44.9026C14.1574 44.9152 15.6038 38.2345 12.102 36.6776C11.5411 36.4267 11.0827 36.0398 10.7512 35.573Z" fill="#199C6A"/>
<g id="Group_2">
<path id="Vector_4" fill-rule="evenodd" clip-rule="evenodd" d="M27.0705 21.0221L29.1559 24.2776L32.6362 23.306L30.4411 26.2739L32.5372 29.5238L29.0917 28.1032L26.9055 31.0821L26.9756 27.2337L23.5283 25.8297L27.0138 24.872L27.0705 21.0221ZM55.0172 14.6644L56.4875 17.7333L59.641 17.2545L57.3926 19.6185L58.8736 22.6818L56.0163 21.0707L53.7769 23.4457L54.2573 20.0859L51.3948 18.491L54.5506 18.0224L55.0172 14.6644ZM74.47 64.3928L73.6863 67.8403L76.5881 69.4461L73.2081 69.9573L72.4381 73.4029L71.1333 70.2717L67.7552 70.7965L70.3267 68.3503L69.0109 65.228L71.9046 66.8463L74.47 64.3928ZM41.8235 69.6192L42.0837 73.6636L45.8007 74.5086L42.2485 76.1474L42.5255 80.1936L40.0682 77.1588L36.5243 78.8151L38.5552 75.3016L36.0866 72.2789L39.8018 73.1404L41.8235 69.6192ZM67.864 18.9292L67.5454 21.8854L70.1269 22.9522L67.3534 23.6992L67.0448 26.6565L65.6476 24.1636L62.876 24.9241L64.7886 22.6342L63.384 20.1472L65.9607 21.2268L67.864 18.9292ZM28.9971 70.0246L30.0853 72.1869L32.323 71.8032L30.7598 73.5159L31.855 75.6756L29.7979 74.5717L28.2407 76.2918L28.5328 73.8941L26.4713 72.7998L28.7116 72.4231L28.9971 70.0246ZM55.0779 66.6837L56.8203 70.0491L54.2451 72.4681L57.8847 72.1186L59.6127 75.4925L60.1206 71.9084L63.7618 71.5757L60.4352 69.7102L60.9594 66.1313L58.3964 68.5616L55.0779 66.6837ZM39.6759 15.4872L40.4234 18.3645L43.2197 18.4721L40.8881 20.1354L41.646 23.0105L39.4568 21.1574L37.1307 22.8314L38.1092 20.0231L35.9155 18.1795L38.7075 18.2966L39.6759 15.4872ZM46.4085 21.1781L47.6079 23.907L50.3841 23.5746L48.35 25.5808L49.5568 28.3038L47.1018 26.8163L45.0733 28.8331L45.5916 25.9051L43.1288 24.4267L45.9036 24.1076L46.4085 21.1781ZM12.6794 37.0138L83.7272 26.4962C83.8931 27.59 83.4992 28.7371 82.5975 29.4853C79.9134 31.7222 81.563 36.5446 84.8328 37.2444C85.249 37.3327 85.6764 37.3487 86.098 37.2939C87.7944 37.0724 89.4091 38.2054 89.7609 39.8639L89.9902 40.9345C90.365 42.6924 89.2181 44.4299 87.4418 44.7965C83.6854 45.5713 83.6753 52.4067 87.4303 53.2124C89.1974 53.5899 90.3464 55.3443 89.9656 57.091L89.8304 57.718L18.6867 68.2486C17.6729 67.5279 16.4213 67.1958 15.1874 67.7345C13.5314 68.4582 11.5683 67.7054 10.833 66.0623L10.3867 65.0619C9.65106 63.4222 10.4075 61.4822 12.0635 60.7584C15.3325 59.3331 14.4025 52.5366 10.3086 52.5232C8.50167 52.5156 7.00893 51.0348 7.01231 49.2475L7.0155 48.1519C7.01888 46.3646 8.51196 44.8949 10.3189 44.9025C13.9264 44.9137 15.4168 39.0163 12.6794 37.0138ZM55.7693 77.2937L53.508 79.2453L54.673 81.76L52.1179 80.4488L49.8659 82.4081L50.5488 79.6448L47.9863 78.3395L50.9618 77.9451L51.6348 75.1808L52.7924 77.7013L55.7693 77.2937Z" fill="#25BE84"/>
</g>
</g>
<defs>
<filter id="filter0_d_0_7390" x="4.68457" y="5.29163" width="91.6218" height="91.0756" filterUnits="userSpaceOnUse" color-interpolation-filters="sRGB">
<feFlood flood-opacity="0" result="BackgroundImageFix"/>
<feColorMatrix in="SourceAlpha" type="matrix" values="0 0 0 0 0 0 0 0 0 0 0 0 0 0 0 0 0 0 127 0" result="hardAlpha"/>
<feOffset dx="3.91675" dy="3.91675"/>
<feComposite in2="hardAlpha" operator="out"/>
<feColorMatrix type="matrix" values="0 0 0 0 0.847606 0 0 0 0 0.967394 0 0 0 0 0.921984 0 0 0 1 0"/>
<feBlend mode="normal" in2="BackgroundImageFix" result="effect1_dropShadow_0_7390"/>
<feBlend mode="normal" in="SourceGraphic" in2="effect1_dropShadow_0_7390" result="shape"/>
</filter>
</defs>
</svg>
