<svg width="127" height="136" viewBox="0 0 127 136" fill="none" xmlns="http://www.w3.org/2000/svg">
<g id="Group 30001">
<g id="Group 29999">
<g id="Ellipse 10" filter="url(#filter0_d_225_288)">
<circle cx="58.8838" cy="58" r="7.88379" fill="#D9D9D9"/>
<circle cx="58.8838" cy="58" r="6.88379" stroke="#FFB900" stroke-width="2"/>
</g>
<g id="Group">
<g id="Group_2">
<g id="Group_3">
<g id="Group_4">
<path id="Vector" d="M59.0085 62.9374L58.9361 62.9165L58.9161 62.9901L58.9904 63.0115C59.0106 63.0168 59.0307 63.0045 59.0353 62.9839C59.0399 62.9633 59.0279 62.9425 59.0085 62.9374Z" fill="#183041"/>
<g id="Group_5">
<path id="Vector_2" d="M58.9073 62.6222C58.8652 62.5141 58.7891 62.4512 58.7119 62.4525C58.6594 62.5279 58.642 62.6507 58.6839 62.7612C58.6966 62.7948 58.7137 62.8238 58.7333 62.8487C58.7333 62.8487 58.6952 62.8344 58.657 62.8201C58.6187 62.8063 58.5811 62.7904 58.5811 62.7904L58.5541 62.7794C58.5965 62.7038 58.6049 62.5947 58.573 62.4948C58.5382 62.3815 58.4646 62.3148 58.3874 62.309C58.3297 62.3811 58.3053 62.5006 58.3393 62.6159C58.3498 62.6503 58.3652 62.68 58.3832 62.7061C58.3832 62.7061 58.3459 62.6893 58.3086 62.6725C58.2718 62.6547 58.235 62.6368 58.235 62.6368L58.2087 62.624C58.2559 62.5513 58.2709 62.4439 58.2454 62.3412C58.2179 62.2251 58.1473 62.1547 58.071 62.143C58.0091 62.2106 57.9772 62.3292 58.0044 62.4459C58.0129 62.4807 58.0263 62.5117 58.0427 62.5389C58.0427 62.5389 58.0065 62.5197 57.9702 62.5005C57.9346 62.4801 57.899 62.4597 57.899 62.4597L57.8736 62.445C57.925 62.376 57.9469 62.269 57.9273 62.1653C57.9054 62.0502 57.8424 61.9694 57.7647 61.9565C57.6985 62.0206 57.6602 62.1354 57.6808 62.253C57.687 62.2886 57.6984 62.3206 57.7129 62.3491L57.5739 62.2612L57.5495 62.2448C57.6048 62.1795 57.6334 62.0738 57.6206 61.968C57.6135 61.9094 57.5947 61.8598 57.5682 61.8228C57.5419 61.7853 57.5092 61.7582 57.4713 61.7485C57.4016 61.8076 57.3562 61.92 57.3687 62.0401C57.3722 62.0768 57.3818 62.1092 57.3951 62.138C57.3951 62.138 57.3607 62.1152 57.3283 62.0896C57.2954 62.0646 57.2625 62.0396 57.2625 62.0396L57.239 62.0218C57.2984 61.9602 57.3329 61.8571 57.3257 61.7519C57.3182 61.6345 57.2656 61.546 57.1904 61.5226C57.1169 61.5773 57.065 61.686 57.071 61.8054C57.0728 61.8416 57.0802 61.875 57.0912 61.9052L56.964 61.7991L56.9413 61.7801C57.0043 61.7228 57.0449 61.6225 57.0459 61.515C57.0472 61.3956 56.9955 61.3092 56.9247 61.2776C56.849 61.3259 56.7883 61.4332 56.7873 61.5523C56.7871 61.5882 56.7927 61.6217 56.802 61.6523C56.802 61.6523 56.7715 61.6242 56.741 61.596C56.7254 61.5823 56.7109 61.5674 56.7001 61.5561C56.6891 61.545 56.6819 61.5376 56.6819 61.5376L56.6611 61.5164C56.7274 61.4636 56.7746 61.3658 56.7813 61.2599C56.7849 61.2011 56.7754 61.149 56.7561 61.1075C56.7384 61.0644 56.7106 61.032 56.6755 61.0146C56.5962 61.0583 56.5308 61.1591 56.5209 61.2793C56.518 61.3155 56.5202 61.3506 56.5283 61.381C56.5283 61.381 56.5211 61.3736 56.5102 61.3624C56.4998 61.3507 56.486 61.3351 56.4721 61.3195C56.4444 61.2882 56.4168 61.257 56.4168 61.257L56.397 61.2348C56.4667 61.1866 56.5196 61.0926 56.5322 60.9882C56.547 60.8714 56.512 60.7739 56.4427 60.7353C56.3605 60.7736 56.2892 60.8693 56.2728 60.9877C56.2678 61.0236 56.2688 61.0578 56.2738 61.0898L56.1692 60.9592L56.1505 60.9359C56.2234 60.8924 56.2807 60.8036 56.3022 60.698C56.3255 60.5815 56.2935 60.484 56.2272 60.4404C56.1437 60.4722 56.0647 60.5644 56.0424 60.6803C56.0354 60.7155 56.0346 60.7495 56.038 60.7816C56.038 60.7816 56.0134 60.7475 55.9889 60.7135C55.9766 60.6965 55.9644 60.6795 55.9552 60.6667C55.9461 60.6539 55.9407 60.6448 55.9407 60.6448L55.9244 60.6195C55.9992 60.5816 56.064 60.4953 56.0907 60.3924C56.1054 60.3353 56.1061 60.2819 56.0951 60.2369C56.0896 60.2144 56.081 60.194 56.07 60.1763C56.0598 60.1579 56.0469 60.1421 56.0315 60.1297C55.9463 60.1558 55.8623 60.2424 55.8308 60.358C55.8219 60.3926 55.8192 60.4263 55.8208 60.4584C55.8208 60.4584 55.7981 60.423 55.7753 60.3876C55.7536 60.3515 55.7332 60.3146 55.7332 60.3146L55.7183 60.2884C55.7953 60.2554 55.865 60.1739 55.8972 60.0731C55.9151 60.0172 55.9187 59.9641 55.9101 59.9186C55.9009 59.8734 55.8841 59.8329 55.8541 59.8065C55.767 59.8271 55.6792 59.9075 55.6399 60.0215C55.6274 60.0563 55.6237 60.0892 55.6234 60.1213C55.6234 60.1213 55.6182 60.1122 55.6103 60.0984C55.6023 60.0848 55.5921 60.0663 55.5831 60.0472C55.5642 60.0093 55.5454 59.9714 55.5454 59.9714L55.5319 59.9444C55.6108 59.9165 55.685 59.8397 55.7228 59.7413C55.7437 59.6868 55.7502 59.634 55.744 59.588C55.7393 59.5412 55.7233 59.5004 55.6951 59.4719C55.607 59.487 55.5149 59.5616 55.4692 59.6729C55.4551 59.7067 55.4475 59.7403 55.4461 59.7719C55.4461 59.7719 55.4269 59.7343 55.411 59.6949C55.3943 59.656 55.3776 59.617 55.3776 59.617L55.3656 59.5891C55.446 59.5663 55.5244 59.4944 55.5675 59.3985C55.5914 59.3453 55.6008 59.293 55.5971 59.2466C55.5952 59.1994 55.5813 59.1577 55.5548 59.1273C55.466 59.1369 55.3699 59.2059 55.3181 59.3141C55.3023 59.347 55.2926 59.3802 55.2895 59.4116C55.2895 59.4116 55.2853 59.4019 55.2791 59.3873C55.2729 59.3726 55.2662 59.3524 55.2588 59.3325C55.2443 59.2926 55.2298 59.2526 55.2298 59.2526L55.2195 59.2241C55.3009 59.2062 55.3832 59.1392 55.4315 59.0459C55.4583 58.9942 55.4705 58.9423 55.4694 58.8957C55.4682 58.8491 55.4581 58.8059 55.4329 58.7741C55.3438 58.7783 55.2442 58.8416 55.1865 58.9468C55.1684 58.9788 55.1589 59.0107 55.1534 59.0421C55.1534 59.0421 55.1498 59.0321 55.1443 59.0172C55.1385 59.0023 55.132 58.9821 55.1262 58.9616C55.1139 58.9208 55.1017 58.88 55.1017 58.88L55.093 58.8508C55.1753 58.8378 55.261 58.7757 55.3144 58.6851C55.344 58.6349 55.359 58.5837 55.3605 58.5369C55.3614 58.5134 55.3583 58.4912 55.3529 58.4705C55.3482 58.4495 55.3401 58.4302 55.3287 58.4135C55.2399 58.4124 55.1362 58.4706 55.0741 58.572C55.0562 58.6024 55.0445 58.6339 55.0373 58.665C55.0373 58.665 55.0251 58.6242 55.0128 58.5834C55.0028 58.5419 54.9927 58.5005 54.9927 58.5005L54.9857 58.4709C55.0683 58.4625 55.1573 58.4053 55.2155 58.3175C55.2802 58.2201 55.2867 58.1156 55.2415 58.0468C55.1529 58.0409 55.0459 58.0935 54.9824 58.1907C54.9628 58.2201 54.9494 58.251 54.9405 58.2818C54.9405 58.2818 54.9306 58.2402 54.9207 58.1988C54.9157 58.178 54.9107 58.1572 54.907 58.1417C54.9033 58.1262 54.9018 58.1155 54.9018 58.1155L54.8964 58.0855C54.9793 58.0816 55.0711 58.0292 55.134 57.9443C55.2037 57.8501 55.2165 57.7453 55.1744 57.6741C55.0849 57.664 54.9782 57.7107 54.9086 57.8049C54.8875 57.8333 54.8724 57.8636 54.8619 57.8939L54.8315 57.7256L54.8261 57.6956C54.9106 57.6956 55.0002 57.6488 55.0686 57.5666C55.1432 57.4757 55.1618 57.3711 55.1237 57.2975C55.035 57.283 54.9261 57.3248 54.8516 57.4157C54.829 57.4432 54.8123 57.4727 54.8001 57.5025L54.7791 57.3326L54.7753 57.3023C54.8586 57.3065 54.9537 57.2634 55.0214 57.1851C55.0402 57.1634 55.0552 57.1407 55.0671 57.1176C55.08 57.0943 55.0894 57.0707 55.0952 57.0475C55.1069 57.0011 55.1045 56.9561 55.0875 56.9182C54.9998 56.8996 54.8889 56.9366 54.8097 57.0241C54.7857 57.0506 54.7675 57.0793 54.7537 57.1086L54.7419 56.9377L54.7398 56.9071C54.8227 56.9151 54.9198 56.8763 54.9915 56.8008C55.0313 56.7589 55.0571 56.7121 55.0688 56.6664C55.0746 56.6435 55.0769 56.6208 55.0756 56.5991C55.0754 56.5771 55.0717 56.5562 55.0642 56.5369C54.9781 56.5143 54.8641 56.5468 54.7824 56.6307C54.7583 56.6561 54.7401 56.6839 54.7262 56.7125C54.7262 56.7125 54.7233 56.6698 54.7203 56.6271C54.7184 56.5843 54.7182 56.5414 54.7182 56.5414L54.7177 56.5108C54.8001 56.5223 54.899 56.4877 54.9746 56.415C55.0583 56.3343 55.0878 56.232 55.0578 56.1535C54.9711 56.1275 54.8585 56.1554 54.7748 56.2361C54.7494 56.2605 54.7297 56.2876 54.7144 56.3156L54.7115 56.1442L54.711 56.1137C54.7938 56.1284 54.8914 56.0979 54.969 56.0281C55.0568 55.9507 55.0915 55.8491 55.0655 55.7693C54.9802 55.7401 54.8662 55.7639 54.7785 55.8413C54.7519 55.8647 54.7308 55.8911 54.7141 55.9185L54.7199 55.7471L54.721 55.7165C54.8025 55.7343 54.903 55.7074 54.9821 55.6404C55.0704 55.5661 55.1021 55.4656 55.0823 55.3848C54.9984 55.3524 54.8832 55.3722 54.7918 55.4464C54.7652 55.469 54.7442 55.4945 54.7275 55.5214C54.7275 55.5214 54.7291 55.4785 54.7307 55.4357C54.7343 55.393 54.7378 55.3503 54.7378 55.3503L54.6654 55.3451C54.6654 55.3451 54.6618 55.3881 54.6583 55.431C54.6567 55.4741 54.6551 55.5172 54.6551 55.5172C54.6403 55.4884 54.6211 55.4601 54.5962 55.4338C54.5179 55.3474 54.4077 55.3084 54.3193 55.3301C54.2817 55.4117 54.3118 55.5257 54.3933 55.6123C54.4674 55.6907 54.5659 55.7252 54.6484 55.7137L54.6474 55.7445L54.6416 55.917C54.6268 55.8888 54.6075 55.8611 54.5826 55.8358C54.5003 55.7522 54.3883 55.717 54.3012 55.7419C54.2697 55.8254 54.2972 55.9379 54.3795 56.0215C54.4555 56.0972 54.557 56.1281 54.6384 56.1135L54.639 56.1443L54.6418 56.317C54.6256 56.2893 54.605 56.2625 54.5788 56.2381C54.4924 56.1576 54.3788 56.1264 54.293 56.1547C54.2657 56.2395 54.2988 56.3514 54.3853 56.4318C54.4633 56.5046 54.5633 56.5314 54.6451 56.5136L54.6457 56.5444C54.6457 56.5444 54.6458 56.5876 54.6478 56.6307C54.6507 56.6737 54.6537 56.7168 54.6537 56.7168C54.6361 56.6899 54.6141 56.6639 54.5866 56.6406C54.4983 56.5636 54.3862 56.5369 54.3001 56.5686C54.2933 56.5901 54.2902 56.6131 54.291 56.6368C54.2928 56.6604 54.2984 56.6848 54.3075 56.7088C54.3257 56.7569 54.358 56.8038 54.4033 56.8422C54.4852 56.9118 54.5865 56.9343 54.6674 56.913L54.6695 56.9438L54.6815 57.116C54.6639 57.0897 54.6419 57.0646 54.6145 57.0424C54.5242 56.9692 54.4092 56.9473 54.3253 56.9828C54.3139 57.0264 54.318 57.0756 54.3362 57.123C54.3453 57.1467 54.358 57.17 54.374 57.1919C54.391 57.2137 54.4117 57.2342 54.4353 57.2524C54.5209 57.3184 54.6235 57.3362 54.7032 57.3113L54.707 57.3419L54.7282 57.5132C54.7092 57.4879 54.6859 57.4638 54.6573 57.443C54.563 57.3741 54.4469 57.3572 54.3648 57.3965C54.3468 57.4849 54.3917 57.5927 54.486 57.6616C54.5702 57.7241 54.677 57.7366 54.7545 57.7081L54.7599 57.7384L54.7905 57.9081C54.7701 57.8838 54.7455 57.861 54.7158 57.8415C54.6176 57.7774 54.5005 57.7661 54.4205 57.8092C54.4074 57.8985 54.4582 58.0042 54.5564 58.0683C54.645 58.1263 54.7477 58.1342 54.8254 58.1016L54.8309 58.1319C54.8309 58.1319 54.8323 58.1426 54.8361 58.1583C54.8398 58.174 54.8449 58.195 54.8499 58.2159C54.8599 58.2578 54.8699 58.2997 54.8699 58.2997C54.8481 58.2765 54.8222 58.2551 54.7914 58.2371C54.6887 58.1784 54.5738 58.1724 54.4946 58.2199C54.4855 58.3099 54.5429 58.4129 54.6445 58.4718C54.7365 58.5251 54.8397 58.5274 54.9155 58.4907L54.9227 58.5206C54.9227 58.5206 54.9328 58.5624 54.943 58.6043C54.9553 58.6455 54.9677 58.6867 54.9677 58.6867C54.9446 58.6648 54.9175 58.6448 54.8856 58.6287C54.7836 58.5746 54.668 58.5749 54.5912 58.6266C54.5893 58.6494 54.5914 58.6729 54.5972 58.6961C54.6037 58.7191 54.6149 58.7417 54.629 58.7631C54.6574 58.8061 54.6993 58.8443 54.7518 58.8709C54.8468 58.9191 54.9502 58.9155 55.024 58.8745L55.0328 58.904C55.0328 58.904 55.0452 58.9452 55.0575 58.9864C55.0634 59.0071 55.07 59.0276 55.0758 59.0426C55.0813 59.0577 55.085 59.0678 55.085 59.0678C55.0607 59.0472 55.032 59.0291 55.0011 59.0141C54.8974 58.9656 54.7809 58.9726 54.7072 59.0285C54.7066 59.0741 54.7196 59.1223 54.7506 59.1635C54.7814 59.2048 54.8254 59.2405 54.8795 59.2641C54.9772 59.3067 55.0803 59.297 55.1517 59.2518L55.1622 59.2806C55.1622 59.2806 55.1769 59.321 55.1915 59.3614C55.199 59.3815 55.2058 59.4019 55.2121 59.4168C55.2184 59.4315 55.2226 59.4414 55.2226 59.4414C55.1967 59.4226 55.1689 59.4053 55.1368 59.3924C55.0304 59.3502 54.9143 59.364 54.8439 59.4242C54.8454 59.4701 54.8625 59.5169 54.8939 59.557C54.9269 59.5964 54.973 59.6295 55.0284 59.6498C55.1284 59.6864 55.2308 59.6704 55.2996 59.621L55.3117 59.6491C55.3117 59.6491 55.3286 59.6885 55.3455 59.7279C55.3616 59.7677 55.3811 59.8058 55.3811 59.8058C55.3542 59.7886 55.3253 59.7732 55.2926 59.7623C55.184 59.7267 55.0687 59.7475 55.0018 59.812C55.006 59.8577 55.0256 59.9035 55.0594 59.9416C55.0947 59.979 55.1425 60.0093 55.1989 60.0261C55.3007 60.0566 55.402 60.0341 55.4679 59.9803L55.4815 60.0077C55.4815 60.0077 55.5006 60.046 55.5196 60.0843C55.5288 60.1037 55.5391 60.1223 55.5473 60.1361C55.5552 60.15 55.5604 60.1593 55.5604 60.1593C55.5334 60.1434 55.5016 60.1311 55.4688 60.122C55.3585 60.0933 55.2447 60.1213 55.1815 60.19C55.1886 60.2353 55.2094 60.2807 55.2472 60.3156C55.2845 60.3508 55.3339 60.3781 55.391 60.3913C55.4942 60.4154 55.5938 60.3864 55.6565 60.3284L55.6716 60.3549C55.6716 60.3549 55.6923 60.3922 55.7142 60.4288C55.7373 60.4646 55.7603 60.5004 55.7603 60.5004C55.7323 60.4863 55.7009 60.4754 55.666 60.4696C55.5531 60.449 55.4423 60.4835 55.3829 60.5565C55.3874 60.5791 55.396 60.6011 55.408 60.6218C55.421 60.6419 55.4377 60.6605 55.4572 60.677C55.4963 60.7099 55.5469 60.7341 55.6045 60.7437C55.7086 60.7612 55.806 60.7258 55.8652 60.6636L55.8817 60.6891C55.8817 60.6891 55.8871 60.6983 55.8963 60.7113C55.9056 60.7242 55.9181 60.7414 55.9305 60.7587C55.9553 60.7931 55.9802 60.8276 55.9802 60.8276C55.9516 60.8153 55.9197 60.8063 55.8848 60.8027C55.7687 60.7913 55.6605 60.8329 55.6056 60.9099C55.6313 60.9975 55.7234 61.0698 55.8387 61.0818C55.9425 61.0932 56.0395 61.0495 56.0942 60.9839L56.1131 61.0075L56.2191 61.1397C56.19 61.1291 56.158 61.1221 56.1231 61.1207C56.008 61.116 55.9005 61.1667 55.8516 61.2464C55.8831 61.3319 55.9767 61.4003 56.0936 61.4032C56.2004 61.4051 56.2931 61.356 56.3438 61.2865L56.3638 61.309C56.3638 61.309 56.3919 61.3407 56.4199 61.3723C56.4339 61.3881 56.448 61.4039 56.4585 61.4158C56.4695 61.4271 56.4769 61.4346 56.4769 61.4346C56.4462 61.4272 56.4147 61.4216 56.38 61.4224C56.2657 61.425 56.162 61.4826 56.1178 61.5659C56.1356 61.6081 56.1689 61.6447 56.2122 61.6703C56.2568 61.6944 56.3115 61.7074 56.37 61.7048C56.4758 61.7 56.5649 61.6449 56.6113 61.5717L56.6323 61.5932C56.6323 61.5932 56.6397 61.6007 56.6508 61.612C56.6618 61.6233 56.6765 61.6385 56.6922 61.6524C56.7231 61.6809 56.754 61.7093 56.754 61.7093C56.7236 61.7033 56.6907 61.7012 56.6556 61.705C56.5405 61.717 56.4425 61.7798 56.4029 61.8669C56.4423 61.9502 56.5483 61.9994 56.6632 61.9876C56.7675 61.9767 56.8535 61.9149 56.8951 61.8388L56.9181 61.858L57.0468 61.9655C57.0163 61.9612 56.9836 61.961 56.9491 61.9669C56.8354 61.9863 56.7395 62.0583 56.7063 62.1467C56.7532 62.2237 56.8577 62.2713 56.973 62.2497C57.0778 62.2295 57.1596 62.1623 57.1964 62.0835L57.2202 62.1016C57.2202 62.1016 57.2535 62.1269 57.2868 62.1521C57.3196 62.178 57.3544 62.2011 57.3544 62.2011C57.3233 62.1997 57.2904 62.202 57.2568 62.2095C57.1453 62.2354 57.0544 62.3133 57.0265 62.4042C57.0518 62.4416 57.0906 62.4715 57.1383 62.4865C57.1864 62.5011 57.2421 62.503 57.2988 62.4886C57.4014 62.4626 57.4786 62.3906 57.5107 62.3092L57.5354 62.3259L57.6762 62.4149C57.6454 62.4148 57.613 62.4191 57.5795 62.4296C57.469 62.4643 57.3827 62.5488 57.3606 62.6408C57.4164 62.7107 57.5256 62.7438 57.6375 62.7063C57.7388 62.6726 57.8118 62.595 57.8388 62.512L57.8645 62.5268C57.8645 62.5268 57.9006 62.5474 57.9366 62.5681C57.9733 62.5875 58.01 62.607 58.01 62.607C57.9791 62.6092 57.9469 62.6159 57.9139 62.6289C57.8061 62.6702 57.7258 62.7588 57.7088 62.853C57.7668 62.923 57.8807 62.9428 57.9888 62.9007C58.0878 62.8608 58.1562 62.7776 58.1781 62.6931L58.2047 62.706C58.2047 62.706 58.242 62.7241 58.2792 62.7422C58.317 62.7592 58.3547 62.7762 58.3547 62.7762C58.3241 62.7805 58.2922 62.7897 58.2602 62.8046C58.1554 62.8525 58.0802 62.9473 58.0692 63.042C58.1317 63.1072 58.2464 63.1209 58.3521 63.0709C58.4489 63.0236 58.5115 62.9366 58.528 62.8505L58.5554 62.8616C58.5554 62.8616 58.5935 62.8778 58.6324 62.8918C58.6711 62.9063 58.7098 62.9208 58.7098 62.9208C58.6796 62.9271 58.6486 62.9381 58.6176 62.9553C58.5153 63.0127 58.4469 63.1105 58.4419 63.2067C58.5094 63.2661 58.6252 63.274 58.7288 63.2144C58.8225 63.161 58.8789 63.068 58.8883 62.981L58.9165 62.9898L58.9364 62.9162L58.9088 62.9075C58.9451 62.8285 58.945 62.72 58.9073 62.6222Z" fill="#183041"/>
<path id="Vector_3" d="M54.7402 55.3196C54.8031 55.2692 54.8495 55.1866 54.8578 55.0867C54.8677 54.9668 54.8213 54.8581 54.7468 54.8002C54.6642 54.8391 54.6006 54.9383 54.5905 55.0612C54.582 55.1635 54.614 55.2548 54.6678 55.3142L54.6652 55.3451L54.7377 55.3503L54.7402 55.3196Z" fill="#183041"/>
<path id="Vector_4" d="M63.8356 56.6407C63.8081 56.664 63.7861 56.69 63.7684 56.7169C63.7684 56.7169 63.7714 56.6739 63.7744 56.6308C63.7764 56.5877 63.7765 56.5445 63.7765 56.5445L63.777 56.5137C63.8588 56.5315 63.9588 56.5047 64.0369 56.4319C64.1234 56.3515 64.1564 56.2396 64.1291 56.1548C64.0434 56.1265 63.9298 56.1577 63.8434 56.2382C63.8172 56.2626 63.7965 56.2894 63.7803 56.3171L63.7832 56.1444L63.7838 56.1136C63.8652 56.1281 63.9667 56.0973 64.0427 56.0216C64.125 55.938 64.1525 55.8255 64.121 55.742C64.0338 55.717 63.9219 55.7523 63.8396 55.8359C63.8147 55.8612 63.7954 55.8888 63.7806 55.9171L63.7748 55.7446L63.7738 55.7137C63.8563 55.7252 63.9548 55.6907 64.0289 55.6124C64.1105 55.5258 64.1405 55.4117 64.1029 55.3301C64.0145 55.3084 63.9043 55.3475 63.826 55.4338C63.8011 55.4601 63.7819 55.4885 63.7671 55.5173C63.7671 55.5173 63.7655 55.4742 63.7639 55.431C63.7604 55.3881 63.7568 55.3451 63.7568 55.3451L63.7542 55.3142C63.808 55.2548 63.84 55.1635 63.8316 55.0612C63.8214 54.9383 63.7578 54.8391 63.6752 54.8002C63.6007 54.8581 63.5543 54.9668 63.5643 55.0867C63.5725 55.1866 63.6189 55.2692 63.6818 55.3196L63.6844 55.3503C63.6844 55.3503 63.6879 55.393 63.6915 55.4357C63.693 55.4786 63.6947 55.5214 63.6947 55.5214C63.678 55.4946 63.657 55.469 63.6305 55.4465C63.539 55.3723 63.4238 55.3525 63.34 55.3848C63.3201 55.4657 63.3518 55.5661 63.4401 55.6405C63.5192 55.7075 63.6197 55.7344 63.7013 55.7166L63.7023 55.7472L63.7081 55.9185C63.6915 55.8911 63.6704 55.8648 63.6438 55.8414C63.556 55.7639 63.4421 55.7401 63.3568 55.7694C63.3308 55.8492 63.3655 55.9507 63.4533 56.0282C63.5309 56.0979 63.6284 56.1285 63.7112 56.1137L63.7107 56.1443L63.7078 56.3157C63.6925 56.2877 63.6728 56.2606 63.6475 56.2362C63.5638 56.1555 63.4512 56.1276 63.3645 56.1536C63.3345 56.2321 63.3639 56.3344 63.4477 56.4151C63.5233 56.4878 63.6222 56.5224 63.7045 56.5109L63.704 56.5415C63.704 56.5415 63.7039 56.5844 63.7019 56.6271C63.699 56.6698 63.696 56.7126 63.696 56.7126C63.6822 56.684 63.6639 56.6562 63.6398 56.6308C63.5582 56.5468 63.4442 56.5144 63.358 56.5369C63.3505 56.5563 63.3468 56.5773 63.3467 56.5991C63.3453 56.6209 63.3476 56.6436 63.3535 56.6665C63.3652 56.7123 63.391 56.759 63.4307 56.8008C63.5025 56.8764 63.5996 56.9152 63.6825 56.9072L63.6804 56.9377L63.6685 57.1086C63.6548 57.0794 63.6365 57.0507 63.6125 57.0242C63.5333 56.9366 63.4225 56.8996 63.3347 56.9183C63.3178 56.9561 63.3153 57.0011 63.327 57.0476C63.3329 57.0708 63.3422 57.0944 63.3551 57.1176C63.367 57.1407 63.3821 57.1635 63.4009 57.1852C63.4686 57.2635 63.5636 57.3066 63.6469 57.3024L63.6432 57.3327L63.6221 57.5025C63.61 57.4727 63.5933 57.4433 63.5707 57.4157C63.4961 57.3248 63.3873 57.2831 63.2985 57.2976C63.2605 57.3712 63.2791 57.4758 63.3536 57.5667C63.422 57.6488 63.5116 57.6956 63.5961 57.6956L63.5907 57.7256L63.5604 57.8939C63.5498 57.8635 63.5347 57.8334 63.5136 57.8049C63.4441 57.7107 63.3374 57.664 63.2478 57.6741C63.2057 57.7454 63.2186 57.8501 63.2882 57.9443C63.3512 58.0292 63.443 58.0816 63.5258 58.0856L63.5204 58.1156C63.5204 58.1156 63.519 58.1262 63.5152 58.1418C63.5115 58.1574 63.5065 58.1781 63.5016 58.1988C63.4916 58.2404 63.4818 58.2818 63.4818 58.2818C63.4729 58.2511 63.4595 58.2202 63.4399 58.1907C63.3763 58.0936 63.2694 58.0409 63.1807 58.0468C63.1356 58.1156 63.142 58.2201 63.2067 58.3175C63.265 58.4054 63.3539 58.4626 63.4366 58.4709L63.4295 58.5005C63.4295 58.5005 63.4194 58.542 63.4094 58.5835C63.3972 58.6243 63.3849 58.6651 63.3849 58.6651C63.3778 58.6339 63.3661 58.6025 63.3481 58.5721C63.2861 58.4706 63.1823 58.4125 63.0935 58.4136C63.0821 58.4304 63.074 58.4496 63.0693 58.4706C63.0639 58.4914 63.0609 58.5135 63.0617 58.537C63.0632 58.5838 63.0783 58.635 63.1079 58.6852C63.1613 58.7758 63.247 58.8379 63.3293 58.8509L63.3206 58.8801C63.3206 58.8801 63.3083 58.9209 63.2961 58.9616C63.2903 58.9821 63.2838 59.0024 63.278 59.0173C63.2726 59.0322 63.2689 59.0422 63.2689 59.0422C63.2634 59.0107 63.2539 58.9789 63.2358 58.9469C63.1781 58.8417 63.0785 58.7784 62.9894 58.7742C62.9642 58.806 62.9541 58.8493 62.9529 58.8958C62.9518 58.9425 62.964 58.9943 62.9908 59.046C63.0392 59.1394 63.1214 59.2064 63.2028 59.2242L63.1925 59.2527C63.1925 59.2527 63.178 59.2927 63.1635 59.3326C63.1561 59.3525 63.1494 59.3727 63.1432 59.3874C63.1369 59.402 63.1328 59.4117 63.1328 59.4117C63.1296 59.3803 63.12 59.3471 63.1041 59.3143C63.0523 59.206 62.9563 59.137 62.8674 59.1275C62.8409 59.1578 62.8271 59.1996 62.8251 59.2467C62.8215 59.2931 62.8308 59.3455 62.8547 59.3986C62.8979 59.4945 62.9763 59.5665 63.0566 59.5893L63.0447 59.6171C63.0447 59.6171 63.028 59.656 63.0113 59.695C62.9954 59.7344 62.9761 59.772 62.9761 59.772C62.9747 59.7404 62.9671 59.7068 62.953 59.673C62.9074 59.5618 62.8153 59.4871 62.7271 59.4721C62.6989 59.5006 62.683 59.5414 62.6783 59.5882C62.6721 59.6341 62.6786 59.6869 62.6995 59.7415C62.7373 59.8399 62.8115 59.9167 62.8903 59.9445L62.8769 59.9716C62.8769 59.9716 62.858 60.0095 62.8392 60.0474C62.8301 60.0665 62.82 60.085 62.8119 60.0986C62.8041 60.1124 62.7989 60.1215 62.7989 60.1215C62.7985 60.0894 62.7949 60.0565 62.7823 60.0217C62.743 59.9076 62.6552 59.8274 62.5682 59.8066C62.5381 59.833 62.5213 59.8736 62.5121 59.9187C62.5035 59.9643 62.5071 60.0174 62.525 60.0733C62.5572 60.1741 62.6269 60.2556 62.7039 60.2885L62.689 60.3147C62.689 60.3147 62.6686 60.3517 62.6469 60.3878C62.6242 60.4232 62.6014 60.4585 62.6014 60.4585C62.603 60.4265 62.6003 60.3928 62.5914 60.3582C62.56 60.2426 62.4759 60.156 62.3907 60.1299C62.3753 60.1423 62.3624 60.158 62.3523 60.1765C62.3412 60.1943 62.3327 60.2146 62.3272 60.2371C62.3162 60.2821 62.3169 60.3355 62.3316 60.3925C62.3582 60.4955 62.423 60.5817 62.4978 60.6197L62.4816 60.645C62.4816 60.645 62.4761 60.654 62.4671 60.6669C62.4579 60.6796 62.4456 60.6966 62.4333 60.7137C62.4088 60.7477 62.3843 60.7817 62.3843 60.7817C62.3876 60.7497 62.3868 60.7157 62.3798 60.6805C62.3575 60.5646 62.2785 60.4724 62.1951 60.4405C62.1288 60.4842 62.0968 60.5816 62.12 60.6982C62.1415 60.8037 62.1989 60.8925 62.2717 60.936L62.253 60.9593L62.1484 61.0899C62.1534 61.0579 62.1544 61.0237 62.1494 60.9878C62.1329 60.8694 62.0617 60.7737 61.9795 60.7354C61.9102 60.7739 61.8752 60.8715 61.89 60.9883C61.9026 61.0927 61.9556 61.1866 62.0252 61.2348L62.0054 61.2571C62.0054 61.2571 61.9778 61.2884 61.9501 61.3195C61.9363 61.3352 61.9224 61.3508 61.9121 61.3625C61.9011 61.3736 61.8939 61.3811 61.8939 61.3811C61.902 61.3506 61.9042 61.3155 61.9014 61.2793C61.8915 61.1591 61.826 61.0583 61.7467 61.0146C61.7116 61.0321 61.6839 61.0645 61.6661 61.1075C61.6468 61.1491 61.6373 61.2012 61.641 61.2599C61.6476 61.3658 61.6949 61.4636 61.7612 61.5164L61.7403 61.5376C61.7403 61.5376 61.7331 61.545 61.7221 61.5562C61.7113 61.5674 61.6968 61.5823 61.6812 61.5961C61.6507 61.6242 61.6202 61.6523 61.6202 61.6523C61.6295 61.6217 61.6351 61.5883 61.6349 61.5524C61.634 61.4332 61.5732 61.3259 61.4975 61.2776C61.4267 61.3093 61.375 61.3955 61.3763 61.515C61.3773 61.6224 61.4179 61.7227 61.4809 61.7801L61.4582 61.799L61.3311 61.9052C61.342 61.8749 61.3494 61.8415 61.3512 61.8054C61.3572 61.686 61.3053 61.5773 61.2318 61.5226C61.1566 61.546 61.104 61.6345 61.0965 61.7519C61.0893 61.8571 61.1238 61.9602 61.1832 62.0218L61.1597 62.0396C61.1597 62.0396 61.1268 62.0646 61.0939 62.0895C61.0615 62.1152 61.0271 62.1379 61.0271 62.1379C61.0404 62.1092 61.05 62.0768 61.0535 62.0401C61.066 61.92 61.0206 61.8075 60.9509 61.7485C60.913 61.7582 60.8803 61.7853 60.854 61.8227C60.8275 61.8598 60.8087 61.9094 60.8016 61.968C60.7888 62.0738 60.8174 62.1795 60.8727 62.2447L60.8483 62.2612L60.7093 62.3491C60.7238 62.3206 60.7352 62.2885 60.7414 62.253C60.762 62.1354 60.7238 62.0206 60.6575 61.9565C60.5798 61.9694 60.5168 62.0502 60.4949 62.1653C60.4752 62.269 60.4972 62.376 60.5486 62.445L60.5232 62.4597C60.5232 62.4597 60.4876 62.4801 60.452 62.5005C60.4158 62.5197 60.3795 62.5389 60.3795 62.5389C60.3959 62.5116 60.4093 62.4807 60.4178 62.4458C60.445 62.3292 60.4131 62.2106 60.3512 62.143C60.2749 62.1547 60.2043 62.2251 60.1768 62.3412C60.1512 62.4439 60.1662 62.5513 60.2135 62.624L60.1872 62.6367C60.1872 62.6367 60.1504 62.6546 60.1136 62.6725C60.0763 62.6893 60.039 62.706 60.039 62.706C60.057 62.68 60.0724 62.6502 60.0828 62.6158C60.1168 62.5005 60.0925 62.381 60.0348 62.309C59.9577 62.3147 59.884 62.3815 59.8492 62.4947C59.8173 62.5946 59.8257 62.7037 59.8681 62.7793L59.8411 62.7903C59.8411 62.7903 59.8035 62.8063 59.7652 62.8201C59.727 62.8344 59.6889 62.8486 59.6889 62.8486C59.7085 62.8237 59.7256 62.7947 59.7383 62.7611C59.7802 62.6507 59.7629 62.5278 59.7103 62.4524C59.6331 62.4511 59.557 62.514 59.5149 62.6222C59.4772 62.72 59.4772 62.8285 59.5134 62.9077L59.4858 62.9164L59.4133 62.9373C59.394 62.9424 59.3821 62.9632 59.3866 62.9837C59.3911 63.0043 59.4112 63.0167 59.4315 63.0114L59.5057 62.99L59.5339 62.9811C59.5434 63.0682 59.5997 63.1611 59.6934 63.2146C59.797 63.2742 59.9128 63.2663 59.9803 63.2068C59.9753 63.1107 59.9069 63.0128 59.8046 62.9555C59.7736 62.9383 59.7426 62.9273 59.7124 62.921C59.7124 62.921 59.7511 62.9065 59.7899 62.892C59.8287 62.878 59.8668 62.8618 59.8668 62.8618L59.8942 62.8506C59.9106 62.9368 59.9733 63.0238 60.07 63.071C60.1758 63.1211 60.2904 63.1074 60.3529 63.0422C60.342 62.9475 60.2667 62.8527 60.1619 62.8048C60.1299 62.7898 60.098 62.7807 60.0674 62.7764C60.0674 62.7764 60.1052 62.7594 60.1429 62.7424C60.1802 62.7243 60.2175 62.7062 60.2175 62.7062L60.2441 62.6933C60.2659 62.7778 60.3344 62.8609 60.4333 62.9009C60.5415 62.9429 60.6554 62.9231 60.7134 62.8532C60.6964 62.759 60.6161 62.6704 60.5083 62.629C60.4754 62.6161 60.443 62.6093 60.4122 62.6071C60.4122 62.6071 60.4489 62.5876 60.4856 62.5682C60.5216 62.5476 60.5577 62.5269 60.5577 62.5269L60.5834 62.5121C60.6104 62.5952 60.6834 62.6727 60.7847 62.7065C60.8967 62.7438 61.0058 62.7108 61.0617 62.6409C61.0395 62.5489 60.9533 62.4645 60.8427 62.4297C60.8092 62.4192 60.7767 62.4149 60.746 62.415L60.8868 62.326L60.9114 62.3094C60.9436 62.3907 61.0208 62.4627 61.1234 62.4887C61.1801 62.5031 61.2358 62.5012 61.2838 62.4866C61.3316 62.4716 61.3703 62.4417 61.3957 62.4044C61.3677 62.3135 61.2768 62.2356 61.1653 62.2097C61.1317 62.2022 61.0989 62.1998 61.0678 62.2013C61.0678 62.2013 61.1025 62.1782 61.1354 62.1523C61.1687 62.127 61.202 62.1017 61.202 62.1017L61.2258 62.0836C61.2626 62.1624 61.3444 62.2296 61.4492 62.2498C61.5645 62.2714 61.669 62.2238 61.7159 62.1468C61.6827 62.0585 61.5869 61.9865 61.4731 61.967C61.4386 61.9612 61.4059 61.9613 61.3754 61.9656L61.5041 61.8581L61.5271 61.8389C61.5688 61.9151 61.6546 61.9768 61.759 61.9877C61.8739 61.9995 61.9799 61.9504 62.0193 61.867C61.9797 61.7799 61.8817 61.7173 61.7666 61.7052C61.7315 61.7014 61.6986 61.7035 61.6682 61.7095C61.6682 61.7095 61.6991 61.681 61.73 61.6525C61.7457 61.6386 61.7604 61.6235 61.7714 61.6122C61.7825 61.6009 61.7899 61.5934 61.7899 61.5934L61.8109 61.5719C61.8573 61.6451 61.9464 61.7002 62.0522 61.7049C62.1107 61.7076 62.1654 61.6946 62.21 61.6705C62.2532 61.6448 62.2866 61.6083 62.3044 61.5661C62.2602 61.4827 62.1565 61.4251 62.0422 61.4226C62.0074 61.4217 61.976 61.4274 61.9453 61.4348C61.9453 61.4348 61.9527 61.4273 61.9637 61.4159C61.9742 61.4041 61.9882 61.3883 62.0023 61.3725C62.0303 61.3408 62.0584 61.3092 62.0584 61.3092L62.0784 61.2866C62.1291 61.3563 62.2218 61.4054 62.3286 61.4034C62.4455 61.4005 62.5391 61.332 62.5707 61.2466C62.5217 61.1668 62.4142 61.1163 62.2991 61.1209C62.2642 61.1223 62.2322 61.1293 62.2031 61.1398L62.3091 61.0076L62.328 60.984C62.3827 61.0496 62.4797 61.0933 62.5835 61.0819C62.6988 61.0699 62.7909 60.9976 62.8166 60.91C62.7618 60.8331 62.6535 60.7914 62.5374 60.8028C62.5024 60.8065 62.4706 60.8154 62.442 60.8277C62.442 60.8277 62.4668 60.7933 62.4917 60.7588C62.5041 60.7416 62.5165 60.7244 62.5258 60.7115C62.535 60.6985 62.5405 60.6893 62.5405 60.6893L62.5569 60.6637C62.6161 60.7259 62.7136 60.7614 62.8177 60.7439C62.8752 60.7343 62.9259 60.71 62.965 60.6771C62.9845 60.6606 63.0012 60.6421 63.0141 60.622C63.0262 60.6013 63.0348 60.5793 63.0393 60.5567C62.9799 60.4836 62.8691 60.4491 62.7562 60.4697C62.7212 60.4756 62.6899 60.4865 62.6618 60.5005C62.6618 60.5005 62.6849 60.4647 62.7079 60.4289C62.7298 60.3924 62.7505 60.355 62.7505 60.355L62.7656 60.3285C62.8283 60.3865 62.9279 60.4155 63.0312 60.3915C63.0883 60.3782 63.1376 60.3509 63.1749 60.3157C63.2127 60.2808 63.2335 60.2354 63.2406 60.1902C63.1775 60.1215 63.0637 60.0935 62.9533 60.1221C62.9205 60.1312 62.8887 60.1435 62.8617 60.1595C62.8617 60.1595 62.867 60.1502 62.8749 60.1363C62.883 60.1225 62.8933 60.1038 62.9025 60.0844C62.9216 60.0461 62.9406 60.0078 62.9406 60.0078L62.9542 59.9805C63.0202 60.0343 63.1214 60.0567 63.2232 60.0262C63.2796 60.0094 63.3275 59.9791 63.3627 59.9417C63.3965 59.9036 63.4161 59.8578 63.4203 59.8121C63.3533 59.7476 63.2381 59.7268 63.1295 59.7624C63.0969 59.7733 63.0679 59.7887 63.041 59.8059C63.041 59.8059 63.0605 59.7678 63.0766 59.728C63.0935 59.6886 63.1104 59.6492 63.1104 59.6492L63.1224 59.6211C63.1913 59.6706 63.2936 59.6866 63.3937 59.6499C63.449 59.6296 63.495 59.5965 63.5282 59.5571C63.5596 59.517 63.5767 59.4702 63.5782 59.4244C63.5077 59.3641 63.3916 59.3503 63.2852 59.3925C63.2531 59.4054 63.2253 59.4227 63.1994 59.4415C63.1994 59.4415 63.2036 59.4316 63.2099 59.4169C63.2162 59.4021 63.223 59.3816 63.2305 59.3615C63.2451 59.3211 63.2598 59.2807 63.2598 59.2807L63.2702 59.2519C63.3418 59.2971 63.4448 59.3068 63.5425 59.2642C63.5965 59.2407 63.6406 59.2049 63.6715 59.1636C63.7024 59.1224 63.7154 59.0743 63.7148 59.0286C63.6412 58.9727 63.5247 58.9657 63.4209 59.0142C63.39 59.0292 63.3613 59.0473 63.337 59.0679C63.337 59.0679 63.3407 59.0578 63.3462 59.0427C63.3521 59.0277 63.3586 59.0072 63.3645 58.9865C63.3769 58.9453 63.3892 58.9041 63.3892 58.9041L63.398 58.8746C63.4719 58.9156 63.5752 58.9192 63.6702 58.871C63.7227 58.8444 63.7647 58.8062 63.7931 58.7633C63.8071 58.7418 63.8183 58.7193 63.8248 58.6962C63.8306 58.673 63.8327 58.6495 63.8308 58.6267C63.754 58.575 63.6384 58.5747 63.5364 58.6288C63.5046 58.6449 63.4774 58.6649 63.4543 58.6869C63.4543 58.6869 63.4667 58.6456 63.479 58.6044C63.4892 58.5625 63.4993 58.5207 63.4993 58.5207L63.5065 58.4908C63.5823 58.5275 63.6855 58.5253 63.7775 58.4719C63.8791 58.413 63.9365 58.3101 63.9273 58.22C63.8481 58.1725 63.7332 58.1785 63.6306 58.2373C63.5998 58.2551 63.5738 58.2766 63.5521 58.2998C63.5521 58.2998 63.5621 58.2579 63.5721 58.216C63.5771 58.1951 63.5821 58.1741 63.5859 58.1584C63.5897 58.1427 63.5911 58.132 63.5911 58.132L63.5966 58.1017C63.6743 58.1344 63.7769 58.1265 63.8656 58.0684C63.9638 58.0043 64.0146 57.8986 64.0014 57.8094C63.9214 57.7662 63.8043 57.7775 63.7062 57.8416C63.6765 57.8611 63.6518 57.8839 63.6314 57.9083L63.662 57.7385L63.6675 57.7082C63.745 57.7367 63.8517 57.7242 63.9359 57.6617C64.0303 57.5928 64.0751 57.485 64.0572 57.3966C63.9751 57.3574 63.8589 57.3742 63.7647 57.4431C63.7361 57.464 63.7127 57.488 63.6937 57.5134L63.7149 57.3421L63.7187 57.3115C63.7985 57.3364 63.901 57.3185 63.9866 57.2525C64.0103 57.2343 64.0309 57.2138 64.048 57.192C64.064 57.1701 64.0766 57.1468 64.0857 57.1231C64.104 57.0757 64.108 57.0265 64.0967 56.9829C64.0127 56.9475 63.8978 56.9694 63.8074 57.0426C63.78 57.0647 63.758 57.0898 63.7405 57.1161L63.7524 56.9438L63.7545 56.9131C63.8354 56.9343 63.9367 56.9119 64.0186 56.8423C64.0639 56.8038 64.0962 56.757 64.1144 56.7089C64.1235 56.6848 64.1291 56.6606 64.1309 56.6368C64.1316 56.6132 64.1286 56.5901 64.1218 56.5686C64.0361 56.537 63.9239 56.5637 63.8356 56.6407Z" fill="#183041"/>
</g>
</g>
<path id="Vector_5" d="M63.0438 55.1027L63.001 54.7006L62.6178 54.6807C61.9839 54.6478 60.7761 54.4978 59.8106 53.8629C59.733 53.8119 59.568 53.6856 59.476 53.6132L59.2066 53.4011L58.9369 53.6129C58.8209 53.704 58.6724 53.8166 58.6019 53.8629C57.6363 54.4978 56.4286 54.6479 55.7946 54.6808L55.4115 54.7007L55.3687 55.1027C55.039 58.1975 56.013 59.9676 56.8881 60.9075C57.8708 61.9631 58.9792 62.2634 59.1023 62.2941L59.2063 62.3201L59.3102 62.2941C59.4334 62.2634 60.5417 61.9631 61.5245 60.9075C62.3995 59.9675 63.3735 58.1975 63.0438 55.1027ZM59.2582 62.0626L59.2062 62.0756L59.1543 62.0626C59.0376 62.0335 57.9874 61.7489 57.0489 60.7409C56.2081 59.8378 55.2729 58.1311 55.5927 55.1292L55.6141 54.9282L55.8057 54.9183C56.4615 54.8842 57.7123 54.728 58.7211 54.0647C58.8025 54.0111 58.9608 53.8906 59.0715 53.8036L59.2064 53.6977L59.3411 53.8037C59.4229 53.8681 59.6013 54.0055 59.6913 54.0646C60.7001 54.728 61.9509 54.8842 62.6068 54.9182L62.7984 54.9282L62.8198 55.1292C63.1396 58.1311 62.2044 59.8377 61.3636 60.7408C60.4251 61.7489 59.3749 62.0335 59.2582 62.0626Z" fill="#183041"/>
<path id="Vector_6" d="M57.0844 58.2827C57.0834 58.282 57.0824 58.2814 57.0814 58.2807C57.0814 58.2807 57.0695 58.8609 57.5427 59.1317C58.0159 59.4024 58.0159 59.9181 58.0159 59.9181C58.0159 59.9181 57.0036 59.3508 56.5141 58.2292C56.0247 57.1077 56.0024 57.1848 56.0024 57.1848C55.9724 57.2887 56.0261 57.4945 56.0384 57.5984C56.1536 58.5687 56.4618 59.4578 57.0555 60.1779C57.6244 60.8679 58.3189 61.2925 58.9575 61.6053C58.9543 61.6037 59.046 61.1956 59.0494 61.1687C59.1267 60.5581 58.9906 59.812 58.599 59.369C58.1904 58.9068 57.5791 58.6059 57.0844 58.2827Z" fill="#183041"/>
<path id="Vector_7" d="M61.8934 58.2291C61.4039 59.3508 60.3916 59.918 60.3916 59.918C60.3916 59.918 60.3916 59.4023 60.8648 59.1316C61.338 58.8608 61.3261 58.2807 61.3261 58.2807C61.3251 58.2814 61.3241 58.282 61.3231 58.2827C60.8284 58.6058 60.2171 58.9068 59.8084 59.369C59.4168 59.812 59.2807 60.5581 59.3581 61.1687C59.3614 61.1956 59.4532 61.6037 59.4499 61.6053C60.0885 61.2925 60.7831 60.8679 61.3519 60.1779C61.9456 59.4578 62.2539 58.5688 62.369 57.5984C62.3813 57.4945 62.435 57.2888 62.405 57.1848C62.4051 57.1848 62.3828 57.1077 61.8934 58.2291Z" fill="#183041"/>
</g>
</g>
<g id="Group_6">
<g id="Group_7">
<g id="Group_8">
<path id="Vector_8" d="M56.5481 56.9688C56.6758 56.8341 56.7427 56.7718 56.8813 56.657C56.8497 56.6145 56.8339 56.5932 56.8023 56.5507C56.7115 56.6259 56.6671 56.6655 56.5807 56.749C56.5098 56.6673 56.4744 56.6264 56.4035 56.5447C56.4769 56.4738 56.5145 56.4398 56.5909 56.3744C56.5587 56.3324 56.5426 56.3114 56.5104 56.2694C56.4316 56.3368 56.3929 56.3719 56.3171 56.4451C56.2497 56.3673 56.216 56.3284 56.1487 56.2507C56.2496 56.1532 56.3015 56.1069 56.4075 56.0191C56.376 55.9765 56.3602 55.9552 56.3286 55.9127C56.1563 56.0554 56.0731 56.1329 55.9143 56.3003C56.1679 56.5678 56.2946 56.7015 56.5481 56.9688Z" fill="#92220F"/>
<path id="Vector_9" d="M57.2909 56.362C57.4273 56.2776 57.4621 56.1701 57.3976 56.0349C57.3161 55.864 57.2754 55.7786 57.1939 55.6077C57.1294 55.4725 57.0074 55.4412 56.8378 55.5461C56.7305 55.6124 56.6776 55.6477 56.5739 55.7224C56.7757 56.035 56.8767 56.1913 57.0785 56.5038C57.162 56.4438 57.2045 56.4154 57.2909 56.362ZM56.8996 55.6645C56.952 55.6321 56.9952 55.6348 57.0264 55.6938C57.1172 55.8656 57.1626 55.9514 57.2534 56.1232C57.2846 56.1822 57.2685 56.2192 57.2236 56.2471C57.1918 56.2668 57.176 56.2768 57.1445 56.2974C57.0096 56.0678 56.9421 55.953 56.8072 55.7234C56.844 55.6993 56.8624 55.6876 56.8996 55.6645Z" fill="#92220F"/>
<path id="Vector_10" d="M57.9303 56.0628C58.0735 56.0096 58.1272 55.9062 58.088 55.7607C58.0134 55.4837 57.9761 55.3452 57.9015 55.0682C57.8316 55.0891 57.7968 55.1003 57.7275 55.1241C57.8136 55.4014 57.8567 55.54 57.9427 55.8173C57.9626 55.8815 57.9394 55.9148 57.8913 55.9326C57.8432 55.9504 57.8051 55.9398 57.7825 55.8766C57.685 55.6035 57.6363 55.467 57.5388 55.194C57.4665 55.2227 57.4305 55.2379 57.3591 55.2699C57.4661 55.5348 57.5195 55.6673 57.6264 55.9323C57.6826 56.0714 57.787 56.116 57.9303 56.0628Z" fill="#92220F"/>
<path id="Vector_11" d="M58.3266 55.6966C58.3569 55.8444 58.4505 55.9092 58.5994 55.8854C58.7483 55.8615 58.8188 55.7705 58.8061 55.6199C58.8019 55.5698 58.7997 55.5448 58.7955 55.4948C58.7324 55.5007 58.7009 55.5043 58.638 55.5128C58.6446 55.5664 58.6479 55.5932 58.6544 55.6468C58.6627 55.7137 58.6341 55.7419 58.5842 55.7498C58.5342 55.7578 58.499 55.7397 58.4881 55.6732C58.455 55.472 58.4385 55.3714 58.4054 55.1702C58.3944 55.1037 58.4269 55.0714 58.4856 55.0622C58.5442 55.0529 58.5842 55.0735 58.5924 55.1405C58.5974 55.1807 58.5998 55.2008 58.6048 55.241C58.6717 55.2319 58.7052 55.2281 58.7724 55.2218C58.7693 55.1852 58.7678 55.1669 58.7647 55.1303C58.7519 54.9797 58.6473 54.8997 58.4613 54.9295C58.2753 54.9593 58.1974 55.0684 58.2279 55.2162C58.2673 55.4084 58.287 55.5044 58.3266 55.6966Z" fill="#92220F"/>
<path id="Vector_12" d="M59.1857 55.6592C59.2644 55.6599 59.3037 55.6613 59.3822 55.6662C59.3894 55.7354 59.3927 55.77 59.399 55.8392C59.4608 55.8435 59.4917 55.8464 59.5533 55.8534C59.5301 55.4704 59.5108 55.2786 59.4571 54.8959C59.3456 54.8881 59.2898 54.886 59.1781 54.8854C59.0984 55.263 59.0662 55.4529 59.017 55.8332C59.0733 55.831 59.1015 55.8305 59.1578 55.8306C59.1685 55.762 59.1741 55.7278 59.1857 55.6592ZM59.3028 55.0554C59.3321 55.2478 59.3449 55.3441 59.367 55.5369C59.3033 55.5332 59.2715 55.5321 59.2078 55.5312C59.2421 55.3405 59.2611 55.2453 59.3028 55.0554Z" fill="#92220F"/>
<path id="Vector_13" d="M59.8788 55.9058C59.9392 55.9185 59.9693 55.9255 60.0293 55.9409C60.1022 55.6259 60.1386 55.4685 60.2116 55.1537C60.2873 55.1731 60.325 55.1837 60.4001 55.2066C60.4144 55.1548 60.4216 55.1288 60.4359 55.0769C60.2076 55.0071 60.0915 54.9801 59.8579 54.9421C59.85 54.9955 59.8461 55.0222 59.8383 55.0756C59.9151 55.0881 59.9534 55.0952 60.0297 55.1113C59.9693 55.429 59.9391 55.5879 59.8788 55.9058Z" fill="#92220F"/>
<path id="Vector_14" d="M60.5303 56.1093C60.6639 55.7584 60.7308 55.5829 60.8645 55.232C60.7926 55.2016 60.7565 55.1872 60.6837 55.1602C60.5642 55.5167 60.5044 55.695 60.3849 56.0516C60.4434 56.0733 60.4725 56.0849 60.5303 56.1093Z" fill="#92220F"/>
<path id="Vector_15" d="M60.9578 56.3387C61.0925 56.4187 61.2077 56.3977 61.286 56.2709C61.3879 56.1062 61.4388 56.0238 61.5407 55.8591C61.619 55.7324 61.5758 55.5957 61.4075 55.4958C61.2393 55.3959 61.1083 55.4288 61.0462 55.5651C60.9655 55.7424 60.9251 55.8311 60.8444 56.0083C60.7823 56.1448 60.8232 56.2587 60.9578 56.3387ZM60.9884 56.096C61.0796 55.9158 61.1252 55.8257 61.2164 55.6456C61.2466 55.586 61.2918 55.5821 61.3448 55.6135C61.3978 55.645 61.4182 55.688 61.3856 55.7461C61.2869 55.9218 61.2375 56.0097 61.1389 56.1854C61.1062 56.2435 61.0658 56.2478 61.0207 56.221C60.9755 56.1941 60.9583 56.1556 60.9884 56.096Z" fill="#92220F"/>
<path id="Vector_16" d="M61.4846 56.7056C61.6488 56.4934 61.7309 56.3873 61.8951 56.1751C61.8044 56.4508 61.7528 56.5852 61.6381 56.8456C61.6878 56.8935 61.7123 56.9182 61.7605 56.9689C62.014 56.7015 62.1408 56.5678 62.3943 56.3005C62.3424 56.2458 62.316 56.2191 62.2627 56.1671C62.1171 56.3334 62.0443 56.4165 61.8987 56.5828C61.9899 56.3635 62.0316 56.251 62.1063 56.0214C62.0289 55.9524 61.9894 55.9192 61.9092 55.8555C61.6937 56.1577 61.5859 56.3088 61.3704 56.6109C61.4166 56.6477 61.4394 56.6667 61.4846 56.7056Z" fill="#92220F"/>
</g>
<g id="Group_9">
<path id="Vector_17" d="M59.7613 58.8802C59.9585 58.6926 60.1925 58.5296 60.4414 58.3807C60.8364 58.1444 61.028 57.6853 60.9035 57.2505C60.9016 57.2439 60.8997 57.2372 60.8977 57.2306C60.6748 57.4641 60.3406 57.7261 59.8396 57.9974C59.8385 57.998 59.8376 57.9984 59.8365 57.999C59.7987 58.0237 59.7598 58.0483 59.7184 58.0724C59.4741 58.2147 59.3227 58.4012 59.2337 58.6033C59.1447 58.4012 58.9933 58.2147 58.7491 58.0724C58.7076 58.0483 58.6687 58.0237 58.6309 57.999C58.6298 57.9984 58.6289 57.998 58.6279 57.9974C58.1269 57.7261 57.7926 57.4641 57.5697 57.2306C57.5677 57.2372 57.5658 57.2439 57.5639 57.2505C57.4395 57.6853 57.6311 58.1444 58.026 58.3807C58.2749 58.5296 58.5089 58.6926 58.7062 58.8802C58.9225 59.0857 59.078 59.3516 59.1776 59.6404C59.1929 59.7097 59.21 59.7738 59.2269 59.8305C59.2333 59.8302 59.2265 59.8305 59.2329 59.8302C59.2332 59.8292 59.2334 59.8282 59.2337 59.8272C59.234 59.8282 59.2342 59.8292 59.2345 59.8302C59.2409 59.8305 59.2341 59.8302 59.2405 59.8305C59.2575 59.7738 59.2745 59.7097 59.2898 59.6404C59.3894 59.3516 59.545 59.0857 59.7613 58.8802Z" fill="#92220F"/>
<path id="Vector_18" d="M59.9054 57.3079C60.0553 56.9265 59.8835 56.4892 59.5218 56.3312C59.1601 56.1732 58.7454 56.3543 58.5956 56.7358C58.4458 57.1172 58.6176 57.5545 58.9792 57.7125C59.3409 57.8705 59.7556 57.6893 59.9054 57.3079Z" fill="#92220F"/>
</g>
</g>
</g>
</g>
</g>
</g>
<defs>
<filter id="filter0_d_225_288" x="-9" y="0.116211" width="135.768" height="135.768" filterUnits="userSpaceOnUse" color-interpolation-filters="sRGB">
<feFlood flood-opacity="0" result="BackgroundImageFix"/>
<feColorMatrix in="SourceAlpha" type="matrix" values="0 0 0 0 0 0 0 0 0 0 0 0 0 0 0 0 0 0 127 0" result="hardAlpha"/>
<feOffset dy="10"/>
<feGaussianBlur stdDeviation="30"/>
<feComposite in2="hardAlpha" operator="out"/>
<feColorMatrix type="matrix" values="0 0 0 0 0.133333 0 0 0 0 0.74902 0 0 0 0 0.415686 0 0 0 0.3 0"/>
<feBlend mode="normal" in2="BackgroundImageFix" result="effect1_dropShadow_225_288"/>
<feBlend mode="normal" in="SourceGraphic" in2="effect1_dropShadow_225_288" result="shape"/>
</filter>
</defs>
</svg>
