<svg width="26" height="26" viewBox="0 0 26 26" fill="none" xmlns="http://www.w3.org/2000/svg">
<g id="Group 30003">
<g id="Group 29997">
<g id="Star 2" filter="url(#filter0_d_0_7409)">
<path d="M11.6309 2.37644C12.3078 1.44863 13.6922 1.44863 14.3691 2.37644L15.3181 3.67706C15.7238 4.23316 16.4256 4.48859 17.0939 4.3234L18.6569 3.93706C19.7718 3.66145 20.8323 4.55126 20.7545 5.69715L20.6454 7.30347C20.5988 7.99027 20.9722 8.63704 21.5903 8.94005L23.0359 9.64876C24.0672 10.1543 24.3076 11.5176 23.5114 12.3454L22.3953 13.5058C21.9181 14.0019 21.7885 14.7374 22.0672 15.3668L22.7191 16.839C23.1841 17.8892 22.4919 19.088 21.35 19.2104L19.7491 19.3819C19.0646 19.4552 18.4925 19.9353 18.3015 20.5966L17.8545 22.1433C17.5357 23.2467 16.2349 23.7202 15.2815 23.0799L13.9449 22.1823C13.3734 21.7985 12.6266 21.7985 12.0551 22.1823L10.7185 23.0799C9.76507 23.7202 8.46425 23.2467 8.14545 22.1433L7.69855 20.5966C7.50747 19.9353 6.93536 19.4552 6.25091 19.3819L4.65004 19.2104C3.50806 19.088 2.81591 17.8892 3.28094 16.839L3.93282 15.3668C4.21154 14.7374 4.08185 14.0019 3.60467 13.5058L2.48859 12.3454C1.69243 11.5176 1.93281 10.1543 2.96408 9.64876L4.40973 8.94005C5.02783 8.63704 5.40125 7.99027 5.35461 7.30347L5.24554 5.69715C5.16774 4.55126 6.22818 3.66145 7.34314 3.93706L8.90612 4.3234C9.57438 4.48859 10.2762 4.23316 10.6819 3.67706L11.6309 2.37644Z" fill="#25BE84"/>
</g>
<g id="Group 29998">
<path id="Line 33" d="M9.84924 16.7734L16.2146 8.84346" stroke="white" stroke-width="1.71005" stroke-linecap="round"/>
<circle id="Ellipse 63" cx="10.2772" cy="10.4264" r="1.58285" fill="white"/>
<circle id="Ellipse 64" cx="16.055" cy="14.8646" r="1.58285" fill="white"/>
</g>
</g>
</g>
<defs>
<filter id="filter0_d_0_7409" x="0.320216" y="0.833143" width="23.6648" height="22.5355" filterUnits="userSpaceOnUse" color-interpolation-filters="sRGB">
<feFlood flood-opacity="0" result="BackgroundImageFix"/>
<feColorMatrix in="SourceAlpha" type="matrix" values="0 0 0 0 0 0 0 0 0 0 0 0 0 0 0 0 0 0 127 0" result="hardAlpha"/>
<feOffset dx="-1.6948" dy="-0.847399"/>
<feComposite in2="hardAlpha" operator="out"/>
<feColorMatrix type="matrix" values="0 0 0 0 0.113725 0 0 0 0 0.658824 0 0 0 0 0.45098 0 0 0 1 0"/>
<feBlend mode="normal" in2="BackgroundImageFix" result="effect1_dropShadow_0_7409"/>
<feBlend mode="normal" in="SourceGraphic" in2="effect1_dropShadow_0_7409" result="shape"/>
</filter>
</defs>
</svg>
