<svg width="77" height="72" viewBox="0 0 77 72" fill="none" xmlns="http://www.w3.org/2000/svg">
<g id="Group 30014">
<path id="Vector" d="M14.7353 0.892568C12.2994 1.2776 10.1228 2.86841 8.88415 4.98378C7.56385 7.24 7.28348 10.3802 8.88547 12.5798C9.66146 13.6454 10.831 14.4095 12.1454 14.5944C13.517 14.7873 14.7873 14.2614 15.8101 13.365C16.8211 12.4791 17.7287 11.2134 17.8781 9.84834C18.0156 8.59189 17.2818 7.47431 16.099 7.06822C13.8935 6.31066 11.5195 7.82117 10.1169 9.41197C8.58006 11.1542 7.69154 13.4091 7.56254 15.7239C7.43287 18.0525 8.147 20.728 9.92604 22.3365C10.8764 23.1961 12.1599 23.7016 13.4334 23.3297C14.5727 22.9967 15.5804 22.041 15.6377 20.8043C15.6962 19.538 14.7373 18.5428 13.6796 18.0044C12.5271 17.418 11.1897 17.1857 9.90957 17.11C7.28806 16.9553 4.58822 17.6615 2.38203 19.0871C1.81929 19.4504 1.28748 19.8638 0.789898 20.312C0.159367 20.88 1.09266 21.8087 1.72056 21.2427C3.34559 19.7795 5.39451 18.8594 7.55068 18.5257C8.59784 18.3638 9.69565 18.3559 10.7448 18.5073C11.7255 18.6488 12.7911 18.887 13.5993 19.4939C14.2463 19.9803 14.5997 20.8063 14.0087 21.4842C13.4269 22.1516 12.4613 22.3003 11.6728 21.9456C9.91945 21.1564 9.06777 18.8805 8.90323 17.0909C8.73276 15.2322 9.14412 13.3406 10.0721 11.7209C10.9416 10.2024 12.3613 8.71826 14.1179 8.30624C14.7912 8.14828 15.7048 8.10484 16.232 8.64191C16.983 9.40737 16.3906 10.5967 15.8858 11.32C15.279 12.1882 14.4115 13.001 13.3578 13.2557C12.3902 13.4894 11.3325 13.1359 10.5882 12.5014C8.89138 11.0561 8.80055 8.47868 9.58048 6.53378C10.2953 4.75144 11.8275 3.22448 13.6276 2.54459C14.1002 2.36622 14.5879 2.24051 15.0868 2.16153C15.4383 2.10624 15.6331 1.66724 15.5462 1.35197C15.4415 0.97813 15.0874 0.837282 14.7353 0.892568Z" fill="#FA923A"/>
<path id="Vector_2" d="M21.369 65.9529C22.8854 65.2645 24.831 66.2524 25.2726 67.8182C25.5767 68.8976 25.7248 69.9658 26.7443 70.626C27.5795 71.167 28.7129 71.2453 29.6488 70.9459C30.8974 70.5457 31.8524 69.6019 32.6962 68.639C33.2523 68.0045 32.3249 67.0692 31.7655 67.7083C31.0849 68.4849 30.3149 69.3511 29.2993 69.6762C28.5635 69.9119 27.5571 69.848 27.0734 69.1615C26.77 68.7318 26.716 68.1559 26.5923 67.6583C26.4712 67.1699 26.2862 66.6954 25.9946 66.282C25.4517 65.5126 24.6757 64.9591 23.7871 64.6544C22.7683 64.3055 21.6796 64.3733 20.7049 64.8156C20.3811 64.9624 20.3027 65.4317 20.4686 65.716C20.6634 66.0497 21.0445 66.1004 21.369 65.9529Z" fill="#F43E3C"/>
<path id="Vector_3" d="M30.7158 37.4389L35.2658 33.8539L33.9692 31.7576L28.426 35.7553L30.7158 37.4389Z" fill="#952889"/>
<path id="Vector_4" d="M44.4144 63.4368C47.8087 63.6107 51.6306 62.8681 54.0352 60.2716C56.046 58.1001 56.9249 54.6512 55.4478 51.9562C54.6596 50.5177 53.2752 49.5191 51.8442 48.7864C50.4747 48.0849 48.8771 47.3001 47.2929 47.4807C45.7404 47.6575 44.6667 49.0927 45.2624 50.6215C45.8172 52.0462 47.2244 52.9086 48.6455 53.289C51.3425 54.0115 54.4918 53.1363 56.349 51.0272C58.2123 48.9103 58.4073 45.9124 57.2229 43.4122C56.1296 41.1043 53.1481 38.7531 50.5048 40.08C49.8285 40.4193 49.369 41.0849 49.2828 41.8336C49.198 42.5725 49.5294 43.2598 50.0251 43.79C51.169 45.0153 52.9137 45.3395 54.5098 45.4549C57.9766 45.7062 61.5407 44.6449 64.2897 42.5176C66.7576 40.6073 68.5632 37.8783 69.3779 34.8663C69.5811 34.1141 69.7126 33.3464 69.7954 32.5719C69.8329 32.2185 69.4725 31.911 69.1415 31.909C68.7565 31.9066 68.5164 32.208 68.4786 32.563C68.2032 35.1565 67.101 37.6725 65.4051 39.6512C63.5394 41.828 61.0101 43.3003 58.2078 43.8937C56.7738 44.1976 55.2833 44.2576 53.8297 44.0713C52.75 43.9327 51.118 43.5612 50.6513 42.412C50.196 41.2898 51.692 40.9632 52.4759 41.066C53.5324 41.2046 54.4869 41.8831 55.1758 42.664C56.5744 44.2496 57.0832 46.6774 56.3025 48.6589C55.476 50.7569 53.2295 52.0668 51.0404 52.2077C49.9252 52.2796 48.7611 52.0928 47.7801 51.5366C47.0673 51.1321 45.7805 49.8695 46.7162 49.0539C47.1045 48.7154 47.7293 48.7381 48.2059 48.8053C48.8452 48.895 49.4563 49.1312 50.0434 49.3895C51.3072 49.9456 52.5889 50.584 53.5541 51.5948C55.3384 53.4628 55.1416 56.271 53.8507 58.3572C52.3456 60.789 49.4107 61.8793 46.6747 62.0973C45.9255 62.157 45.1741 62.1601 44.4231 62.1214C43.5757 62.0766 43.5702 63.3939 44.4144 63.4368Z" fill="#0AAADB"/>
</g>
</svg>
