<svg width="17" height="16" viewBox="0 0 17 16" fill="none" xmlns="http://www.w3.org/2000/svg">
<g id="location_on_24dp_FILL1_wght400_GRAD0_opsz24 1">
<path id="Vector" d="M8.50004 8.00004C8.88962 8.00004 9.22313 7.86948 9.50056 7.60837C9.77799 7.34726 9.91671 7.03337 9.91671 6.66671C9.91671 6.30004 9.77799 5.98615 9.50056 5.72504C9.22313 5.46393 8.88962 5.33337 8.50004 5.33337C8.11046 5.33337 7.77695 5.46393 7.49952 5.72504C7.22209 5.98615 7.08337 6.30004 7.08337 6.66671C7.08337 7.03337 7.22209 7.34726 7.49952 7.60837C7.77695 7.86948 8.11046 8.00004 8.50004 8.00004ZM8.50004 14.6667C6.59935 13.1445 5.17973 11.7306 4.24119 10.425C3.30264 9.11948 2.83337 7.91115 2.83337 6.80004C2.83337 5.13337 3.40299 3.8056 4.54223 2.81671C5.68146 1.82782 7.00073 1.33337 8.50004 1.33337C9.99935 1.33337 11.3186 1.82782 12.4579 2.81671C13.5971 3.8056 14.1667 5.13337 14.1667 6.80004C14.1667 7.91115 13.6974 9.11948 12.7589 10.425C11.8204 11.7306 10.4007 13.1445 8.50004 14.6667Z" fill="#2D2C30"/>
</g>
</svg>
