<svg width="18" height="18" viewBox="0 0 18 18" fill="none" xmlns="http://www.w3.org/2000/svg">
<g id="local_mall_24dp_FILL1_wght400_GRAD0_opsz24 1">
<path id="Vector" d="M3.75 16.5C3.3375 16.5 2.98438 16.3531 2.69063 16.0594C2.39688 15.7656 2.25 15.4125 2.25 15L2.25 6C2.25 5.5875 2.39688 5.23438 2.69063 4.94063C2.98438 4.64688 3.3375 4.5 3.75 4.5L5.25 4.5C5.25 3.4625 5.61563 2.57813 6.34688 1.84688C7.07813 1.11563 7.9625 0.75 9 0.75C10.0375 0.75 10.9219 1.11563 11.6531 1.84688C12.3844 2.57813 12.75 3.4625 12.75 4.5L14.25 4.5C14.6625 4.5 15.0156 4.64688 15.3094 4.94063C15.6031 5.23438 15.75 5.5875 15.75 6L15.75 15C15.75 15.4125 15.6031 15.7656 15.3094 16.0594C15.0156 16.3531 14.6625 16.5 14.25 16.5L3.75 16.5ZM6.75 4.5L11.25 4.5C11.25 3.875 11.0313 3.34375 10.5938 2.90625C10.1563 2.46875 9.625 2.25 9 2.25C8.375 2.25 7.84375 2.46875 7.40625 2.90625C6.96875 3.34375 6.75 3.875 6.75 4.5ZM8.98125 10.5C9.90625 10.5 10.7438 10.1938 11.4938 9.58125C12.2438 8.96875 12.6125 8.28125 12.6 7.51875C12.6 7.30625 12.5313 7.125 12.3938 6.975C12.2563 6.825 12.0813 6.75 11.8688 6.75C11.6938 6.75 11.5375 6.80625 11.4 6.91875C11.2625 7.03125 11.1625 7.2 11.1 7.425C10.9625 7.9 10.6938 8.28125 10.2938 8.56875C9.89375 8.85625 9.45625 9 8.98125 9C8.50625 9 8.06563 8.85625 7.65938 8.56875C7.25313 8.28125 6.9875 7.9 6.8625 7.425C6.8 7.1875 6.70625 7.01563 6.58125 6.90938C6.45625 6.80313 6.30625 6.75 6.13125 6.75C5.91875 6.75 5.74063 6.825 5.59688 6.975C5.45313 7.125 5.38125 7.30625 5.38125 7.51875C5.38125 8.28125 5.75 8.96875 6.4875 9.58125C7.225 10.1938 8.05625 10.5 8.98125 10.5Z" fill="#FD4F57"/>
</g>
</svg>
