<svg width="44" height="44" viewBox="0 0 44 44" fill="none" xmlns="http://www.w3.org/2000/svg">
<g id="menu_black_24dp 1" clip-path="url(#clip0_225_805)">
<path id="Vector" d="M7.33333 33L36.6667 33C37.675 33 38.5 32.175 38.5 31.1667C38.5 30.1583 37.675 29.3333 36.6667 29.3333L7.33333 29.3333C6.325 29.3333 5.5 30.1583 5.5 31.1667C5.5 32.175 6.325 33 7.33333 33ZM7.33333 23.8333L36.6667 23.8333C37.675 23.8333 38.5 23.0083 38.5 22C38.5 20.9917 37.675 20.1667 36.6667 20.1667L7.33333 20.1667C6.325 20.1667 5.5 20.9917 5.5 22C5.5 23.0083 6.325 23.8333 7.33333 23.8333ZM5.5 12.8333C5.5 13.8417 6.325 14.6667 7.33333 14.6667L36.6667 14.6667C37.675 14.6667 38.5 13.8417 38.5 12.8333C38.5 11.825 37.675 11 36.6667 11L7.33333 11C6.325 11 5.5 11.825 5.5 12.8333Z" fill="#2D2C30"/>
</g>
<defs>
<clipPath id="clip0_225_805">
<rect width="44" height="44" fill="white"/>
</clipPath>
</defs>
</svg>
