<svg width="26" height="26" viewBox="0 0 26 26" fill="none" xmlns="http://www.w3.org/2000/svg">
<g id="navigate_next_FILL0_wght400_GRAD0_opsz48 1">
<path id="Vector" d="M7.09565 9.58745C7.2762 9.44301 7.47481 9.36627 7.69148 9.35724C7.90815 9.34821 8.09773 9.42495 8.26023 9.58745L13.0269 14.3541L17.8206 9.56037C17.9651 9.41592 18.1592 9.34821 18.4029 9.35724C18.6467 9.36627 18.8408 9.44301 18.9852 9.58745C19.1658 9.76801 19.2515 9.9621 19.2425 10.1697C19.2335 10.3774 19.1477 10.5624 18.9852 10.7249L13.5956 16.1145C13.5054 16.2048 13.4151 16.268 13.3248 16.3041C13.2345 16.3402 13.1352 16.3583 13.0269 16.3583C12.9186 16.3583 12.8193 16.3402 12.729 16.3041C12.6387 16.268 12.5484 16.2048 12.4581 16.1145L7.09565 10.752C6.93315 10.5895 6.85641 10.3999 6.86544 10.1833C6.87447 9.96662 6.9512 9.76801 7.09565 9.58745Z" fill="#2D2C30"/>
</g>
</svg>
