<svg width="25" height="25" viewBox="0 0 25 25" fill="none" xmlns="http://www.w3.org/2000/svg">
<g id="navigate_next_FILL0_wght400_GRAD0_opsz48 1">
<path id="Vector" d="M9.74839 17.8303C9.61506 17.6636 9.54422 17.4803 9.53589 17.2803C9.52756 17.0803 9.59839 16.9053 9.74839 16.7553L14.1484 12.3553L9.72339 7.93028C9.59006 7.79695 9.52756 7.61778 9.53589 7.39278C9.54422 7.16778 9.61506 6.98862 9.74839 6.85528C9.91506 6.68862 10.0942 6.60945 10.2859 6.61778C10.4776 6.62612 10.6484 6.70528 10.7984 6.85528L15.7734 11.8303C15.8567 11.9136 15.9151 11.9969 15.9484 12.0803C15.9817 12.1636 15.9984 12.2553 15.9984 12.3553C15.9984 12.4553 15.9817 12.5469 15.9484 12.6303C15.9151 12.7136 15.8567 12.7969 15.7734 12.8803L10.8234 17.8303C10.6734 17.9803 10.4984 18.0511 10.2984 18.0428C10.0984 18.0344 9.91506 17.9636 9.74839 17.8303Z" fill="#FD4F57"/>
</g>
</svg>
