<svg width="16" height="15" viewBox="0 0 16 15" fill="none" xmlns="http://www.w3.org/2000/svg">
<path id="Vector" d="M6.96423 8.65307L1.78509 8.65307C1.49161 8.65307 1.2456 8.5538 1.04707 8.35527C0.848534 8.15674 0.749268 7.91073 0.749268 7.61724C0.749268 7.32376 0.848534 7.07775 1.04707 6.87922C1.2456 6.68068 1.49161 6.58142 1.78509 6.58142L6.96423 6.58142L6.96423 1.40228C6.96423 1.1088 7.06349 0.862789 7.26203 0.664255C7.46056 0.465722 7.70657 0.366455 8.00005 0.366455C8.29354 0.366455 8.53955 0.465722 8.73808 0.664255C8.93661 0.862789 9.03588 1.1088 9.03588 1.40228L9.03588 6.58142L14.215 6.58142C14.5085 6.58142 14.7545 6.68068 14.953 6.87922C15.1516 7.07775 15.2508 7.32376 15.2508 7.61724C15.2508 7.91073 15.1516 8.15674 14.953 8.35527C14.7545 8.5538 14.5085 8.65307 14.215 8.65307L9.03588 8.65307L9.03588 13.8322C9.03588 14.1257 8.93661 14.3717 8.73808 14.5702C8.53955 14.7688 8.29354 14.868 8.00005 14.868C7.70657 14.868 7.46056 14.7688 7.26203 14.5702C7.06349 14.3717 6.96423 14.1257 6.96423 13.8322L6.96423 8.65307Z" fill="#07B06D"/>
</svg>
