<svg width="15" height="14" viewBox="0 0 15 14" fill="none" xmlns="http://www.w3.org/2000/svg">
<path id="Vector" d="M7.5 10.4448C7.69521 10.4448 7.85884 10.3788 7.99089 10.2467C8.12294 10.1147 8.18896 9.95107 8.18896 9.75586V7C8.18896 6.80479 8.12294 6.64116 7.99089 6.50911C7.85884 6.37706 7.69521 6.31104 7.5 6.31104C7.30479 6.31104 7.14116 6.37706 7.00911 6.50911C6.87706 6.64116 6.81104 6.80479 6.81104 7V9.75586C6.81104 9.95107 6.87706 10.1147 7.00911 10.2467C7.14116 10.3788 7.30479 10.4448 7.5 10.4448ZM7.5 4.93311C7.69521 4.93311 7.85884 4.86708 7.99089 4.73503C8.12294 4.60298 8.18896 4.43935 8.18896 4.24414C8.18896 4.04893 8.12294 3.8853 7.99089 3.75325C7.85884 3.6212 7.69521 3.55518 7.5 3.55518C7.30479 3.55518 7.14116 3.6212 7.00911 3.75325C6.87706 3.8853 6.81104 4.04893 6.81104 4.24414C6.81104 4.43935 6.87706 4.60298 7.00911 4.73503C7.14116 4.86708 7.30479 4.93311 7.5 4.93311ZM7.5 13.8896C6.54693 13.8896 5.65128 13.7088 4.81304 13.3471C3.9748 12.9854 3.24564 12.4945 2.62557 11.8744C2.00551 11.2544 1.51462 10.5252 1.15291 9.68696C0.791205 8.84872 0.610352 7.95307 0.610352 7C0.610352 6.04693 0.791205 5.15128 1.15291 4.31304C1.51462 3.4748 2.00551 2.74564 2.62557 2.12557C3.24564 1.50551 3.9748 1.01462 4.81304 0.652911C5.65128 0.291205 6.54693 0.110352 7.5 0.110352C8.45307 0.110352 9.34872 0.291205 10.187 0.652911C11.0252 1.01462 11.7544 1.50551 12.3744 2.12557C12.9945 2.74564 13.4854 3.4748 13.8471 4.31304C14.2088 5.15128 14.3896 6.04693 14.3896 7C14.3896 7.95307 14.2088 8.84872 13.8471 9.68696C13.4854 10.5252 12.9945 11.2544 12.3744 11.8744C11.7544 12.4945 11.0252 12.9854 10.187 13.3471C9.34872 13.7088 8.45307 13.8896 7.5 13.8896ZM7.5 12.5117C9.03869 12.5117 10.342 11.9778 11.4099 10.9099C12.4778 9.84198 13.0117 8.53869 13.0117 7C13.0117 5.46131 12.4778 4.15802 11.4099 3.09012C10.342 2.02223 9.03869 1.48828 7.5 1.48828C5.96131 1.48828 4.65802 2.02223 3.59012 3.09012C2.52223 4.15802 1.98828 5.46131 1.98828 7C1.98828 8.53869 2.52223 9.84198 3.59012 10.9099C4.65802 11.9778 5.96131 12.5117 7.5 12.5117Z" fill="#FD4F57"/>
</svg>
